<svg xmlns="http://www.w3.org/2000/svg" xmlns:xlink="http://www.w3.org/1999/xlink" viewBox="0 0 210 210" width="60" height="60">
  <g transform="translate(105, 105)">
    <g transform="matrix(1.9021403165259658 0 0 1.9021403165259658 0 0)">
      <radialGradient id="SVGID_1" gradientUnits="userSpaceOnUse" gradientTransform="matrix(1 0 0 1 0 0)" cx="150" cy="150" r="52.3703651" fx="150" fy="150">
        <stop offset="58.58755%" style="stop-color:rgb(255,255,255);stop-opacity: 1"/>
        <stop offset="100%" style="stop-color:rgb(2,88,122);stop-opacity: 1"/>
      </radialGradient>
      <path style="stroke: none; stroke-width: 1; stroke-dasharray: none; stroke-linecap: butt; stroke-dashoffset: 0; stroke-linejoin: miter; stroke-miterlimit: 4; fill: url(#SVGID_1); fill-rule: nonzero; opacity: 1;" paint-order="stroke" transform="translate(-149.9999962, -149.99999615)" d="M 102.3701706 172.2434387 L 128.6895599 161.6648254 L 106.36854550000001 179.16882320000002 L 102.3701706 172.2434387 L 102.3701706 172.2434387 z M 119.8730774 193.0783081 L 126.7984848 197.0766754 L 137.3770752 170.7572327 L 119.8730774 193.0783081 L 119.8730774 193.0783081 z M 145.4485016 202.3703918 L 153.44525149999998 202.3703918 L 149.44688419999997 174.28778069999998 L 145.4485016 202.3703918 L 145.4485016 202.3703918 z M 172.2434082 197.6298523 L 179.1688232 193.631485 L 161.66482539999998 171.31040959999999 L 172.2434082 197.6298523 L 172.2434082 197.6298523 z M 193.0783386 180.1269531 L 197.0767059 173.2015533 L 170.7572021 162.6229248 L 193.0783386 180.1269531 L 193.0783386 180.1269531 z M 202.3703308 154.5515594 L 202.3703308 146.5548095 L 174.2877502 150.55317680000002 L 202.3703308 154.5515594 L 202.3703308 154.5515594 z M 197.6298218 127.7565613 L 193.6314545 120.8311844 L 171.3104401 138.3351746 L 197.6298218 127.7565613 L 197.6298218 127.7565613 z M 180.1269226 106.9216995 L 173.2015228 102.9233246 L 162.6229248 129.2427673 L 180.1269226 106.9216995 L 180.1269226 106.9216995 z M 154.5514984 97.6296005 L 146.55474850000002 97.6296005 L 150.55311580000003 125.7122268 L 154.5514984 97.6296005 L 154.5514984 97.6296005 z M 127.7565918 102.3701401 L 120.8311844 106.368515 L 138.3351746 128.68959040000001 L 127.7565918 102.3701401 L 127.7565918 102.3701401 z M 106.921669 119.8730469 L 102.92329409999999 126.7984543 L 129.2427979 137.3770752 L 106.921669 119.8730469 L 106.921669 119.8730469 z M 97.6296616 145.4484406 L 97.6296616 153.4451905 L 125.7122574 149.44682319999998 L 97.6296616 145.4484406 L 97.6296616 145.4484406 z" stroke-linecap="round"/>
    </g>
    <g transform="matrix(1.9021403165259658 0 0 1.9021403165259658 0.00000722813319953275 0.00000732324025420894)">
      <radialGradient id="SVGID_2" gradientUnits="userSpaceOnUse" gradientTransform="matrix(1 0 0 1 0 0)" cx="150" cy="150" r="21.4201813" fx="150" fy="150">
        <stop offset="46.53191%" style="stop-color:rgb(255,255,255);stop-opacity: 1"/>
        <stop offset="100%" style="stop-color:rgb(179,224,242);stop-opacity: 1"/>
      </radialGradient>
      <path style="stroke: none; stroke-width: 1; stroke-dasharray: none; stroke-linecap: butt; stroke-dashoffset: 0; stroke-linejoin: miter; stroke-miterlimit: 4; fill: url(#SVGID_2); fill-rule: nonzero; opacity: 1;" paint-order="stroke" transform="translate(-150, -150)" d="M 130.0970459 158.3673248 L 141.28373720000002 154.7710724 L 132.57594300000002 162.6609345 L 130.0970459 158.3673248 L 130.0970459 158.3673248 z M 136.9471588 167.1978149 L 141.2407684 169.6767273 L 144.8370208 158.4899597 L 136.9471588 167.1978149 L 136.9471588 167.1978149 z M 147.2949066 171.420166 L 152.252716 171.420166 L 149.77380359999998 159.9340057 L 147.2949066 171.420166 L 147.2949066 171.420166 z M 158.3673706 169.9029541 L 162.66096499999998 167.42405699999998 L 154.7711029 158.71623229999997 L 158.3673706 169.9029541 L 158.3673706 169.9029541 z M 167.1978607 163.0527954 L 169.67677310000002 158.75923160000002 L 158.48991400000003 155.16293340000001 L 167.1978607 163.0527954 L 167.1978607 163.0527954 z M 171.4201965 152.7051697 L 171.4201965 147.7473603 L 159.9339294 150.2262727 L 171.4201965 152.7051697 L 171.4201965 152.7051697 z M 169.9029541 141.6326752 L 167.42405699999998 137.3390656 L 158.71626279999998 145.22892769999999 L 169.9029541 141.6326752 L 169.9029541 141.6326752 z M 163.0528412 132.8021851 L 158.7592316 130.3232727 L 155.1629792 141.5100403 L 163.0528412 132.8021851 L 163.0528412 132.8021851 z M 152.7050934 128.579834 L 147.747284 128.579834 L 150.22619640000002 140.0659943 L 152.7050934 128.579834 L 152.7050934 128.579834 z M 141.6326294 130.0970459 L 137.33903500000002 132.57594300000002 L 145.2288971 141.28376770000003 L 141.6326294 130.0970459 L 141.6326294 130.0970459 z M 132.8021393 136.9472046 L 130.32322689999998 141.24076839999998 L 141.51008599999997 144.83706659999999 L 132.8021393 136.9472046 L 132.8021393 136.9472046 z M 128.5798035 147.2948303 L 128.5798035 152.2526397 L 140.0660706 149.7737273 L 128.5798035 147.2948303 L 128.5798035 147.2948303 z" stroke-linecap="round"/>
    </g>
    <g transform="matrix(1.9021403165259658 0 0 1.9021403165259658 0.00000722813319953275 0.00000732324025420894)">
      <radialGradient id="SVGID_3" gradientUnits="userSpaceOnUse" gradientTransform="matrix(1 0 0 1 0 0)" cx="150" cy="150" r="38.329071" fx="150" fy="150">
        <stop offset="56.44014%" style="stop-color:rgb(255,255,255);stop-opacity: 1"/>
        <stop offset="100%" style="stop-color:rgb(98,183,217);stop-opacity: 1"/>
      </radialGradient>
      <path style="stroke: none; stroke-width: 1; stroke-dasharray: none; stroke-linecap: butt; stroke-dashoffset: 0; stroke-linejoin: miter; stroke-miterlimit: 4; fill: url(#SVGID_3); fill-rule: nonzero; opacity: 1;" paint-order="stroke" transform="translate(-150, -150)" d="M 113.4525757 136.6439056 L 132.7432709 144.95224000000002 L 111.8828202 142.5020905 L 113.4525757 136.6439056 L 113.4525757 136.6439056 z M 111.6709595 156.707016 L 113.24059299999999 162.5652008 L 132.5312806 154.2568664 L 111.6709595 156.707016 L 111.6709595 156.707016 z M 120.1595306 174.9730072 L 124.4480438 179.2614746 L 137.0000763 162.4208984 L 120.1595306 174.9730072 L 120.1595306 174.9730072 z M 136.6438446 186.5474854 L 142.502121 188.1171875 L 144.9522705 167.2567596 L 136.6438446 186.5474854 L 136.6438446 186.5474854 z M 156.707077 188.3291016 L 162.5652313 186.7593995 L 154.2569275 167.4686891 L 156.707077 188.3291016 L 156.707077 188.3291016 z M 174.9730072 179.8404388 L 179.2615356 175.5519867 L 162.4208679 162.9998627 L 174.9730072 179.8404388 L 174.9730072 179.8404388 z M 186.5474243 163.3560944 L 188.1171875 157.49790959999999 L 167.2567291 155.04776009999998 L 186.5474243 163.3560944 L 186.5474243 163.3560944 z M 188.3290405 143.292984 L 186.75939939999998 137.4347992 L 167.46871949999996 145.7431336 L 188.3290405 143.292984 L 188.3290405 143.292984 z M 179.8404694 125.0269928 L 175.55195619999998 120.738533 L 162.99992369999998 137.5791015 L 179.8404694 125.0269928 L 179.8404694 125.0269928 z M 163.3561554 113.4525146 L 157.497879 111.8828201 L 155.0477295 132.7432403 L 163.3561554 113.4525146 L 163.3561554 113.4525146 z M 143.292923 111.6708984 L 137.4347687 113.2405929 L 145.7430725 132.531311 L 143.292923 111.6708984 L 143.292923 111.6708984 z M 125.0269928 120.1595612 L 120.738472 124.4480133 L 137.5791321 137.0001373 L 125.0269928 120.1595612 L 125.0269928 120.1595612 z" stroke-linecap="round"/>
    </g>
  </g>
</svg>